<svg width="82" height="32" viewBox="0 0 82 32" fill="none" xmlns="http://www.w3.org/2000/svg">
<path d="M1.58631 24.5387C0.529564 22.1497 0 19.3171 0 16.0385C0 12.7598 0.529564 9.9272 1.58631 7.53821C2.64305 5.15159 4.09577 3.30825 5.9397 2.01293C7.6906 0.78403 9.67766 0.138741 11.8985 0.074687C12.0965 0.0699422 12.2587 0.231264 12.2587 0.428172V3.23233C12.2587 3.43161 12.0965 3.59056 11.8985 3.60005C10.3599 3.66411 8.96203 4.13621 7.70253 5.01874C6.33807 5.97007 5.25747 7.37215 4.46074 9.22261C3.65685 11.0754 3.25372 13.3458 3.25372 16.0385C3.25372 18.7311 3.65685 21.0015 4.46074 22.8543C5.25508 24.7072 6.33568 26.1069 7.70253 27.0582C8.95964 27.9407 10.3599 28.4152 11.8985 28.4769C12.0965 28.484 12.2587 28.6453 12.2587 28.8422V31.6464C12.2587 31.8433 12.0965 32.0046 11.8985 31.9999C9.67527 31.9382 7.6906 31.2905 5.9397 30.0616C4.09577 28.7663 2.64543 26.9253 1.58631 24.5364" fill="#CDD7E1"/>
<path d="M80.3867 24.4641C81.4435 22.0751 81.9731 19.2425 81.9731 15.9639C81.9731 12.6852 81.4435 9.85262 80.3867 7.46363C79.33 5.07701 77.8773 3.23366 76.0334 1.93834C74.2825 0.709445 72.2954 0.0641556 70.0746 0.000101017C69.8766 -0.00464377 69.7144 0.156678 69.7144 0.353586L69.7144 3.15775C69.7144 3.35703 69.8766 3.51598 70.0746 3.52547C71.6132 3.58952 73.011 4.06163 74.2705 4.94415C75.635 5.89548 76.7156 7.29756 77.5123 9.14802C78.3162 11.0009 78.7193 13.2712 78.7193 15.9639C78.7193 18.6565 78.3162 20.9269 77.5123 22.7797C76.718 24.6326 75.6374 26.0323 74.2705 26.9836C73.0134 27.8661 71.6132 28.3406 70.0746 28.4023C69.8766 28.4094 69.7144 28.5707 69.7144 28.7676L69.7144 31.5718C69.7144 31.7687 69.8766 31.93 70.0746 31.9253C72.2978 31.8636 74.2824 31.2159 76.0333 29.9871C77.8773 28.6917 79.3276 26.8508 80.3867 24.4618" fill="#CDD7E1"/>
<path d="M30.2533 22.3343C29.0261 22.3343 27.9669 22.0924 27.0758 21.6087C26.1897 21.1198 25.5074 20.4247 25.0287 19.5234C24.5551 18.617 24.3184 17.54 24.3184 16.2924C24.3184 15.0805 24.5577 14.0213 25.0364 13.1149C25.515 12.2034 26.1897 11.4956 27.0605 10.9915C27.9313 10.4823 28.9573 10.2277 30.1387 10.2277C30.9738 10.2277 31.7377 10.3575 32.4302 10.6172C33.1227 10.8769 33.7211 11.2614 34.2252 11.7706C34.7293 12.2798 35.1214 12.9087 35.4015 13.6572C35.6816 14.4007 35.8216 15.2536 35.8216 16.2161V17.1479H25.6245V14.9787H32.3462C32.3411 14.5815 32.2469 14.2276 32.0636 13.9169C31.8802 13.6063 31.6282 13.3644 31.3074 13.1913C30.9917 13.0131 30.6276 12.924 30.2151 12.924C29.7975 12.924 29.4233 13.0182 29.0923 13.2066C28.7613 13.3899 28.499 13.642 28.3055 13.9628C28.112 14.2785 28.0102 14.6375 28 15.0398V17.2472C28 17.7259 28.0942 18.146 28.2826 18.5075C28.471 18.864 28.7384 19.1415 29.0846 19.3401C29.4309 19.5387 29.8434 19.638 30.322 19.638C30.653 19.638 30.9535 19.5922 31.2234 19.5005C31.4932 19.4089 31.7249 19.2739 31.9184 19.0957C32.1119 18.9175 32.2571 18.6985 32.3538 18.4388L35.7834 18.5381C35.6408 19.307 35.3276 19.9766 34.8439 20.547C34.3652 21.1122 33.7363 21.5527 32.9572 21.8684C32.1781 22.179 31.2768 22.3343 30.2533 22.3343Z" fill="#112645"/>
<path d="M11.3399 22.1995L11.4034 22.4432H11.6552H15.6576H15.9075L15.9723 22.2018L17.5557 16.2968L19.1392 22.2018L19.2039 22.4432H19.4538H23.4486H23.7003L23.7638 22.1997L26.8268 10.4674L26.9333 10.0593H26.5116H22.7612H22.4956L22.4421 10.3194L21.1594 16.5545L19.7023 10.311L19.6436 10.0593H19.3851H15.7264H15.4659L15.4086 10.3134L13.9904 16.5993L12.669 10.318L12.6146 10.0593H12.3502H8.59985H8.17838L8.2846 10.4672L11.3399 22.1995Z" fill="#112645" stroke="white" stroke-width="0.651539"/>
<path d="M39.7549 26.9875L39.8425 26.6995L40.6674 23.9879L40.7648 23.6679L41.0821 23.7737C41.4299 23.8896 41.7331 23.9535 41.9941 23.9716L39.7549 26.9875ZM39.7549 26.9875L40.035 27.0975M39.7549 26.9875L40.035 27.0975M40.035 27.0975C40.3463 27.2198 40.7099 27.3138 41.1222 27.3827C41.5397 27.4575 41.9811 27.4943 42.4456 27.4943C43.3736 27.4943 44.1766 27.3496 44.8418 27.0448C45.501 26.7451 46.0451 26.3273 46.4666 25.7898C46.8838 25.2693 47.2039 24.6703 47.4288 23.9963L51.8509 11.1425L51.9994 10.7108H51.5428H47.6091H47.3577L47.294 10.954L45.3576 18.3486L43.4485 10.9551L43.3854 10.7108H43.1331H39.2223H38.7662L38.9141 11.1422L43.0447 23.186L42.9466 23.4237L42.9465 23.4237L42.9456 23.4261C42.8496 23.6641 42.727 23.794 42.5951 23.8614L42.5951 23.8613M40.035 27.0975L42.5951 23.8613M42.5951 23.8613L42.5871 23.8657M42.5951 23.8613L42.5871 23.8657M42.5871 23.8657C42.4393 23.9466 42.2473 23.9887 41.9945 23.9716L42.5871 23.8657Z" fill="#112645" stroke="white" stroke-width="0.651539"/>
<path d="M61.0693 14.4458L61.4139 14.4366L61.3852 14.0931C61.2809 12.8408 60.7278 11.8415 59.7318 11.1219C58.7412 10.4012 57.413 10.0593 55.7826 10.0593C54.6942 10.0593 53.7342 10.2109 52.9097 10.5235C52.0843 10.8364 51.429 11.2971 50.9629 11.9145C50.4919 12.5333 50.2653 13.2746 50.2704 14.1203C50.2653 15.093 50.5782 15.9169 51.2203 16.5646L51.2213 16.5656C51.8606 17.2049 52.8078 17.619 54.0196 17.8395L56.0654 18.2288L56.0662 18.229C56.539 18.3176 56.8428 18.4341 57.0145 18.5562L57.0145 18.5562L57.0185 18.5589C57.1644 18.6595 57.2244 18.7741 57.2288 18.9249C57.2244 19.0827 57.1514 19.2236 56.9301 19.3548C56.6953 19.4941 56.3686 19.5766 55.9277 19.5766C55.443 19.5766 55.0747 19.4741 54.8004 19.294C54.5382 19.1218 54.3738 18.8751 54.3076 18.5276L54.2558 18.256L53.9795 18.2629L50.2902 18.3546L49.9327 18.3634L49.9748 18.7185C50.1232 19.9717 50.7225 20.9799 51.7579 21.725L51.7595 21.7261C52.8006 22.4659 54.1964 22.8175 55.9124 22.8175C56.9949 22.8175 57.969 22.6493 58.829 22.3053L58.8306 22.3047C59.689 21.956 60.3797 21.4614 60.8884 20.8147C61.4097 20.1586 61.6711 19.3869 61.6766 18.5142L61.6766 18.5102C61.671 17.5741 61.3494 16.7959 60.6989 16.2085C60.0662 15.6326 59.1293 15.2443 57.929 15.0147L57.9284 15.0146L55.6701 14.5873C55.191 14.4883 54.9185 14.3674 54.7909 14.2575C54.6668 14.1462 54.6237 14.0364 54.6264 13.9135L54.6267 13.9136L54.6265 13.9007C54.6238 13.7469 54.687 13.6126 54.9054 13.4864C55.1516 13.3472 55.4623 13.2697 55.8513 13.2697C56.1458 13.2697 56.3889 13.3195 56.5886 13.4091L56.5886 13.4092L56.5959 13.4123C56.8066 13.5008 56.9677 13.6206 57.0883 13.7685L57.0883 13.7685L57.0911 13.7718C57.2099 13.9137 57.2817 14.0739 57.3087 14.2589L57.3504 14.5452L57.6397 14.5375L61.0693 14.4458Z" fill="#112645" stroke="white" stroke-width="0.651539"/>
<path d="M65.1093 22.596H65.4351V22.2702V15.581C65.44 15.1711 65.5143 14.8416 65.6442 14.5809C65.7795 14.3195 65.965 14.1259 66.2023 13.9909L66.2023 13.9909L66.2039 13.99C66.4486 13.8489 66.7374 13.7738 67.08 13.7738C67.5982 13.7738 67.9636 13.9314 68.2207 14.2163L68.2207 14.2163L68.2224 14.2181C68.4873 14.5071 68.6379 14.9274 68.6333 15.5231H68.6333V15.5256V22.2702V22.596H68.959H72.6941H73.0199V22.2702V14.7932C73.0251 13.8704 72.849 13.0482 72.4798 12.3368C72.1175 11.6237 71.6031 11.0634 70.9383 10.6642C70.2736 10.2568 69.4976 10.0593 68.6229 10.0593C67.704 10.0593 66.8937 10.2789 66.2065 10.7312C65.8271 10.9781 65.5086 11.2779 65.2518 11.6288V10.5378V10.2121H64.926H61.3742H61.0485V10.5378V22.2702V22.596H61.3742H65.1093Z" fill="#112645" stroke="white" stroke-width="0.651539"/>
<path d="M40.0253 6.47583V6.15006H39.6996H35.9644H35.6387V6.47583V22.119V22.4448H35.9644H39.6996H40.0253V22.119V6.47583Z" fill="#112645" stroke="white" stroke-width="0.651539"/>
</svg>
